<svg width="199" height="74" viewBox="0 0 199 74" fill="none" xmlns="http://www.w3.org/2000/svg">
<path d="M0.268 0.125998H20.65C25.9247 0.125998 29.8807 1.588 32.518 4.512C35.1553 7.436 36.5027 11.7647 36.56 17.498L36.732 52.07C36.7893 59.3513 35.528 64.8267 32.948 68.496C30.368 72.1653 26.0967 74 20.134 74H0.268V0.125998ZM17.726 60.928C20.4207 60.928 21.768 59.6093 21.768 56.972V18.874C21.768 17.2113 21.6247 15.9787 21.338 15.176C21.1087 14.316 20.65 13.7427 19.962 13.456C19.274 13.1693 18.2133 13.026 16.78 13.026H15.146V60.928H17.726ZM42.6801 74V0.125998H72.2641V14.402H57.7301V28.764H71.6621V42.696H57.7301V59.638H73.2101V74H42.6801ZM78.1215 74V0.125998H93.3435L100.138 35.472V0.125998H114.414V74H99.9655L92.5695 37.02V74H78.1215ZM120.266 74V0.125998H134.542V74H120.266ZM140.438 74V0.125998H162.97L169.162 45.19L175.354 0.125998H198.058V74H184.556V20.766L176.042 74H162.798L153.768 20.766V74H140.438Z" fill="#151C22"/>
</svg>
